<svg width="50" height="44" viewBox="0 0 50 44" fill="none" xmlns="http://www.w3.org/2000/svg">
<path d="M4.836 43.112C4.28133 43.112 3.64 42.9907 2.912 42.748C2.21867 42.5053 1.612 42.1587 1.092 41.708C0.572 41.2573 0.26 40.7547 0.156 40.2C0.052 39.7147 0 39.2467 0 38.796C0 37.6173 0.329333 36.664 0.988 35.936C1.64667 35.208 2.40933 34.5147 3.276 33.856C3.34533 33.7867 3.432 33.7173 3.536 33.648C3.67467 33.544 3.796 33.492 3.9 33.492C4.35067 33.2147 4.784 32.9547 5.2 32.712C5.65067 32.4347 6.11867 32.1573 6.604 31.88C6.77733 31.776 6.98533 31.672 7.228 31.568C7.436 31.5333 7.62667 31.4467 7.8 31.308C8.07733 31.1347 8.33733 30.9613 8.58 30.788C8.85733 30.6147 9.11733 30.4413 9.36 30.268C9.81067 29.9213 10.3827 29.748 11.076 29.748H11.18L11.284 29.8C12.0813 29.488 13 29.1587 14.04 28.812C15.1147 28.4653 16.1893 28.188 17.264 27.98C18.3733 27.7373 19.344 27.616 20.176 27.616C20.28 27.616 20.5227 27.6507 20.904 27.72C21.2853 27.7547 21.476 27.8587 21.476 28.032C21.476 28.136 21.3893 28.2053 21.216 28.24C21.0773 28.24 20.9907 28.24 20.956 28.24C20.5747 28.3093 20.228 28.3093 19.916 28.24C19.7427 28.24 19.552 28.2573 19.344 28.292C19.1707 28.292 18.9973 28.3093 18.824 28.344C18.824 28.656 18.6853 28.812 18.408 28.812C17.9227 28.812 17.4373 28.968 16.952 29.28C16.5013 29.592 16.016 29.748 15.496 29.748C15.3227 29.748 15.132 29.7827 14.924 29.852C14.716 29.9213 14.5253 29.956 14.352 29.956C14.0053 29.956 13.7107 30.0253 13.468 30.164C13.2253 30.3027 12.9307 30.4067 12.584 30.476C12.4107 30.6147 12.2547 30.7187 12.116 30.788C12.012 30.8227 11.8387 30.84 11.596 30.84L11.44 30.788L11.336 30.736C11.1627 30.8053 10.972 30.8747 10.764 30.944C10.556 31.0133 10.348 31.0827 10.14 31.152L8.996 31.62C8.06 32.14 7.21067 32.7467 6.448 33.44C5.68533 34.0987 4.836 34.428 3.9 34.428C3.72667 34.6707 3.51867 34.9827 3.276 35.364C3.03333 35.7107 2.912 36.0227 2.912 36.3C2.912 36.5773 2.756 36.7507 2.444 36.82V37.34C2.444 37.6173 2.35733 37.8427 2.184 38.016C2.35733 38.1893 2.444 38.3453 2.444 38.484C2.444 38.6573 2.37467 38.796 2.236 38.9C2.27067 38.9693 2.30533 39.056 2.34 39.16C2.37467 39.2293 2.392 39.2987 2.392 39.368C2.392 39.472 2.34 39.5587 2.236 39.628V39.68C2.444 39.888 2.79067 40.0787 3.276 40.252C3.796 40.4253 4.19467 40.512 4.472 40.512C4.992 40.512 5.70267 40.356 6.604 40.044C7.50533 39.6973 8.44133 39.2987 9.412 38.848C10.4173 38.3627 11.3707 37.8947 12.272 37.444C13.1733 36.9933 13.884 36.6293 14.404 36.352V36.3C14.6467 36.3 14.82 36.3 14.924 36.3C15.028 36.2653 15.0973 36.1093 15.132 35.832L15.6 35.364L16.276 35.312C16.588 35.1387 16.9 34.9827 17.212 34.844C17.524 34.6707 17.836 34.532 18.148 34.428C18.2867 34.2547 18.7027 33.9253 19.396 33.44C20.124 32.92 20.956 32.3653 21.892 31.776C22.828 31.152 23.712 30.58 24.544 30.06C25.4107 29.54 26.052 29.176 26.468 28.968C26.7453 28.656 26.9707 28.188 27.144 27.564C27.3173 26.94 27.4387 26.4373 27.508 26.056L27.404 25.38C27.3347 24.964 27.1613 24.652 26.884 24.444C26.4333 24.0627 25.6533 23.7853 24.544 23.612C23.5733 23.4733 22.3253 23.352 20.8 23.248C19.2747 23.144 17.9227 23.0573 16.744 22.988C16.016 22.9187 15.3053 22.832 14.612 22.728C13.9533 22.624 13.3293 22.4853 12.74 22.312C11.5267 22 10.4867 21.5147 9.62 20.856C8.788 20.1973 8.28533 19.296 8.112 18.152L7.8 18.36L7.644 18.204V17.892C7.60933 17.8573 7.592 17.7707 7.592 17.632C7.592 16.4187 7.88667 15.24 8.476 14.096C9.1 12.952 9.86267 11.8947 10.764 10.924C11.7 9.91866 12.636 9.08666 13.572 8.428C14.82 7.596 16.1027 6.764 17.42 5.932C18.7373 5.1 20.1067 4.424 21.528 3.904C22.2213 3.62667 22.932 3.41867 23.66 3.28C24.388 3.10667 25.116 2.968 25.844 2.864C26.1213 2.79467 26.3813 2.74267 26.624 2.708C26.9013 2.67333 27.1787 2.63866 27.456 2.604C27.7333 2.56933 27.9933 2.51733 28.236 2.448C28.5133 2.37866 28.7733 2.30933 29.016 2.24C29.8827 2.24 30.7147 2.32667 31.512 2.5C32.3093 2.63867 32.8813 3.14133 33.228 4.008C33.5053 3.904 33.644 3.696 33.644 3.384C33.644 3.24533 33.644 3.124 33.644 3.02C33.644 2.916 33.6267 2.79466 33.592 2.656C33.5573 2.51733 33.54 2.292 33.54 1.98C33.54 1.564 33.4533 1.252 33.28 1.044L33.54 0.887999H33.644C34.0253 0.887999 34.5973 1.00933 35.36 1.252C36.1227 1.49466 36.868 1.78933 37.596 2.136C38.324 2.448 38.8093 2.76 39.052 3.072L38.948 4.06L37.596 4.736L37.024 4.632C36.7467 4.736 36.5907 4.96133 36.556 5.308C36.5213 5.62 36.504 5.94933 36.504 6.296C36.504 6.608 36.4 6.816 36.192 6.92L35.464 6.764L35.412 6.816L36.088 7.648L35.984 7.908L36.244 8.22L36.036 8.376L35.464 8.168C35.36 8.51466 35.308 8.896 35.308 9.312C35.308 9.728 35.256 10.092 35.152 10.404C35.048 10.6813 34.788 10.8547 34.372 10.924C33.9907 11.34 33.7827 11.7213 33.748 12.068C33.7133 12.4147 33.644 12.7093 33.54 12.952C33.4707 13.1947 33.124 13.3853 32.5 13.524V13.42L32.604 12.016L32.24 11.704C32.3093 10.872 32.396 10.04 32.5 9.208C32.604 8.376 32.7773 7.56133 33.02 6.764C32.5347 6.31333 32.0147 5.91467 31.46 5.568C30.9053 5.22133 30.2813 5.048 29.588 5.048C29.484 5.048 29.38 5.048 29.276 5.048C29.172 5.048 29.068 5.06533 28.964 5.1C28.86 5.13467 28.756 5.152 28.652 5.152C28.548 5.152 28.444 5.152 28.34 5.152C28.4093 5.39467 28.236 5.58533 27.82 5.724C27.404 5.828 27.1093 5.88 26.936 5.88C26.7627 5.88 26.624 5.828 26.52 5.724C26.312 5.65467 26.156 5.62 26.052 5.62C25.8787 5.75867 25.7053 5.88 25.532 5.984C25.3933 6.088 25.1853 6.14 24.908 6.14C24.6307 6.14 24.3707 6.26133 24.128 6.504C23.8507 6.78133 23.504 6.92 23.088 6.92C22.776 6.92 22.4987 6.83333 22.256 6.66C22.1173 6.69467 21.9613 6.868 21.788 7.18C21.6493 7.492 21.4067 7.648 21.06 7.648C20.9907 7.648 20.9387 7.63066 20.904 7.596C20.8693 7.56133 20.8347 7.544 20.8 7.544C20.7653 7.544 20.7307 7.52667 20.696 7.492C20.592 7.66533 20.4707 7.73467 20.332 7.7C20.1587 7.63067 19.9853 7.68267 19.812 7.856C19.708 7.92533 19.6213 8.012 19.552 8.116C19.448 8.22 19.3093 8.272 19.136 8.272L18.72 8.584L18.512 8.376C18.2 8.54933 17.992 8.74 17.888 8.948C17.784 9.12133 17.6627 9.27733 17.524 9.416C17.3853 9.52 17.0907 9.572 16.64 9.572L15.392 10.508C15.288 10.5773 15.2013 10.664 15.132 10.768C15.028 10.9413 14.9067 11.0453 14.768 11.08C14.664 11.4613 14.4213 11.7907 14.04 12.068C13.6933 12.3453 13.3467 12.5533 13 12.692C12.8613 13.004 12.636 13.16 12.324 13.16C12.116 13.368 11.8733 13.732 11.596 14.252C11.3533 14.772 11.128 15.3093 10.92 15.864C10.7467 16.384 10.66 16.8 10.66 17.112C10.66 17.7707 10.6947 18.1867 10.764 18.36C10.8333 18.4987 10.972 18.6027 11.18 18.672C11.4227 18.7413 11.752 18.984 12.168 19.4C12.5493 19.816 13.0693 20.0933 13.728 20.232C14.3867 20.3707 14.9933 20.492 15.548 20.596C15.6867 20.596 15.756 20.648 15.756 20.752C15.756 20.8213 15.7213 20.856 15.652 20.856H15.444C15.132 20.856 14.6813 20.8387 14.092 20.804C13.5373 20.7347 13 20.6307 12.48 20.492C11.96 20.3187 11.596 20.0933 11.388 19.816C11.3533 19.7813 11.336 19.7467 11.336 19.712L11.284 19.66C10.7987 19.66 10.4173 19.4693 10.14 19.088C9.86267 18.672 9.724 18.2387 9.724 17.788C9.724 17.476 9.74133 17.2507 9.776 17.112C9.81067 17.008 9.828 16.904 9.828 16.8C9.828 16.696 9.84533 16.5747 9.88 16.436H9.776C9.60267 16.436 9.49867 16.6267 9.464 17.008C9.464 17.3893 9.464 17.6147 9.464 17.684C9.464 17.8573 9.464 18.0307 9.464 18.204C9.464 18.3427 9.48133 18.4467 9.516 18.516C9.65467 19.348 10.1053 19.9893 10.868 20.44C11.6653 20.8907 12.6533 21.22 13.832 21.428C15.0107 21.6013 16.276 21.7053 17.628 21.74C19.0147 21.74 20.384 21.7227 21.736 21.688C23.088 21.688 24.4227 21.7053 25.74 21.74C27.0573 21.7747 28.2707 21.9133 29.38 22.156C30.4893 22.364 31.3733 22.7107 32.032 23.196C32.6907 23.6813 33.02 24.3747 33.02 25.276C33.02 25.7613 32.916 26.2467 32.708 26.732C32.5693 26.9747 32.448 27.2173 32.344 27.46C32.2747 27.7027 32.2053 27.9453 32.136 28.188C31.5813 28.4653 31.252 28.76 31.148 29.072C31.044 29.3493 30.8533 29.7307 30.576 30.216C30.368 30.2853 30.0733 30.4933 29.692 30.84C29.3453 31.1867 28.9987 31.516 28.652 31.828C28.3053 32.1053 28.028 32.244 27.82 32.244C27.5773 32.348 27.352 32.4867 27.144 32.66C26.9707 32.8333 26.8493 33.0587 26.78 33.336L26.52 33.18C26.104 33.7693 25.3933 34.4453 24.388 35.208C23.348 35.936 22.1347 36.664 20.748 37.392C19.396 38.12 17.94 38.8307 16.38 39.524C14.82 40.1827 13.312 40.8067 11.856 41.396C10.3653 41.916 8.996 42.332 7.748 42.644C6.53467 42.956 5.564 43.112 4.836 43.112ZM31.876 14.876L32.032 13.784L32.552 14.044L31.876 14.876ZM28.444 23.976L28.6 23.56L28.236 23.352L27.872 23.612L28.444 23.976ZM32.24 26.056V25.952L31.668 25.38V26.004L32.24 26.056ZM30.94 27.408L31.512 27.096C31.512 26.576 31.4427 26.16 31.304 25.848C31.1307 26.0213 30.9747 26.2293 30.836 26.472C30.732 26.68 30.68 26.9227 30.68 27.2V27.356L30.94 27.408ZM31.2 28.396L31.824 27.512V27.408L30.628 27.928L30.888 28.292L31.2 28.396ZM28.392 31.256L29.224 31.048L29.692 29.904L28.86 30.736L28.496 30.528L28.34 31.152L28.392 31.256Z" fill="black"/>
<path d="M39.2287 40.2C39.0554 40.2 38.8821 40.2 38.7087 40.2C38.5701 40.1653 38.4141 40.1307 38.2407 40.096C38.0674 40.0267 37.8941 39.9747 37.7207 39.94C37.5474 39.9053 37.3741 39.8707 37.2007 39.836L37.2527 39.576C36.1781 39.576 35.4501 39.3853 35.0687 39.004C34.7221 38.588 34.5487 37.8253 34.5487 36.716C34.5487 36.612 34.5661 36.5427 34.6007 36.508V36.352C34.7741 36.3867 34.9127 36.4213 35.0167 36.456C35.1207 36.456 35.2074 36.456 35.2767 36.456C35.6234 36.456 35.8661 36.3867 36.0047 36.248C36.2127 36.2133 36.4207 36.196 36.6287 36.196C36.8367 36.196 37.0447 36.1787 37.2527 36.144C37.4261 36.144 37.6167 36.144 37.8247 36.144C38.0327 36.1093 38.2234 36.0747 38.3967 36.04V35.988C37.8074 34.8093 37.2874 33.7347 36.8367 32.764C36.4207 31.7933 36.2127 30.7187 36.2127 29.54C36.2127 28.7427 36.3514 28.0147 36.6287 27.356C36.9407 26.6973 37.1834 26.004 37.3567 25.276C37.4261 25.068 37.5301 24.964 37.6687 24.964C37.8421 24.9293 37.9634 24.8947 38.0327 24.86C38.1714 24.6867 38.2927 24.5307 38.3967 24.392C38.5354 24.2533 38.6741 24.1147 38.8127 23.976C38.9167 23.872 39.0207 23.7853 39.1247 23.716C39.2634 23.612 39.3847 23.508 39.4887 23.404L39.8527 23.092C40.7887 22.2947 41.8461 21.6187 43.0247 21.064C44.2034 20.4747 45.3301 19.9547 46.4047 19.504L47.7567 20.388C47.9301 20.7347 48.1381 21.0987 48.3807 21.48C48.6234 21.8267 48.7447 22.2253 48.7447 22.676V22.884C48.7101 22.9533 48.6927 23.0573 48.6927 23.196L48.3807 23.664C48.3807 23.664 48.1034 23.8373 47.5487 24.184C47.0287 24.5307 46.4047 24.912 45.6767 25.328C44.9834 25.744 44.3594 26.1253 43.8047 26.472C43.2847 26.784 43.0074 26.94 42.9727 26.94C42.8341 26.94 42.7647 26.888 42.7647 26.784C42.7647 26.68 42.9727 26.4547 43.3887 26.108C43.8394 25.7267 44.3421 25.328 44.8967 24.912C45.4514 24.4613 45.9541 24.08 46.4047 23.768C46.8554 23.456 47.0981 23.2827 47.1327 23.248C46.1621 23.352 45.2087 23.56 44.2727 23.872C43.3367 24.1493 42.5047 24.548 41.7767 25.068C41.7074 25.1027 41.6034 25.1027 41.4647 25.068C41.3261 25.0333 41.2221 25.0507 41.1527 25.12C41.0487 25.1893 40.9794 25.328 40.9447 25.536C40.9101 25.744 40.8581 25.8827 40.7887 25.952C40.3381 26.4027 39.9741 26.94 39.6967 27.564C39.4541 28.188 39.3327 28.8987 39.3327 29.696C39.3327 29.8693 39.4194 30.2853 39.5927 30.944C39.7661 31.568 39.9914 32.2613 40.2687 33.024C40.5461 33.7867 40.8407 34.4453 41.1527 35C41.4647 35.5547 41.7594 35.832 42.0367 35.832H43.3367C43.5447 35.832 43.7527 35.832 43.9607 35.832C44.1687 35.7973 44.3767 35.7627 44.5847 35.728C44.9661 35.6587 45.3301 35.5547 45.6767 35.416C46.4047 35.2427 47.1327 35.1387 47.8607 35.104C48.1034 34.9653 48.3981 34.8613 48.7447 34.792C48.9181 34.7573 49.0741 34.74 49.2127 34.74C49.3861 34.74 49.5421 34.7227 49.6807 34.688L49.9927 34.844L49.9407 35.312C49.6981 35.3813 49.2994 35.52 48.7447 35.728C48.2247 35.936 47.6874 36.1267 47.1327 36.3C46.6127 36.4733 46.2141 36.56 45.9367 36.56L45.7287 36.508C45.6941 36.508 45.6767 36.4907 45.6767 36.456H45.6247C45.3474 36.456 45.0701 36.508 44.7927 36.612C44.6541 36.6813 44.4981 36.7507 44.3247 36.82C44.1861 36.8547 44.0474 36.9067 43.9087 36.976C43.6314 37.08 43.3021 37.184 42.9207 37.288C42.5741 37.3573 42.2101 37.3747 41.8287 37.34C41.7594 38.0333 41.4994 38.692 41.0487 39.316C40.6327 39.9053 40.0261 40.2 39.2287 40.2ZM38.1367 38.172C38.2407 38.172 38.2927 38.068 38.2927 37.86C38.2927 37.7907 38.2754 37.704 38.2407 37.6C38.2061 37.4613 38.1541 37.392 38.0847 37.392C37.9114 37.392 37.7207 37.392 37.5127 37.392C37.3047 37.3573 37.1141 37.3227 36.9407 37.288C36.7327 37.2533 36.5247 37.236 36.3167 37.236C36.1087 37.2013 35.9181 37.184 35.7447 37.184H35.6927C35.7621 37.288 35.9874 37.4267 36.3687 37.6C36.7501 37.7387 37.1314 37.8773 37.5127 38.016C37.8941 38.12 38.1021 38.172 38.1367 38.172Z" fill="black"/>
</svg>
